<svg class="sk-icon" width="92" height="24" viewBox="0 0 245 58" xmlns="http://www.w3.org/2000/svg" xmlns:xlink="http://www.w3.org/1999/xlink">
<g id="_ëîé_1" data-name="‘ëîé_1">
            <g>
              <path d="M82.72,42.71c5.14,0,7.7-1.76,7.71-5.27.03-.97-.21-1.92-.68-2.76-.47-.78-1.1-1.45-1.85-1.98-.83-.58-1.72-1.07-2.67-1.44-1-.41-2.05-.81-3.17-1.22-1.25-.42-2.46-.92-3.65-1.5-1.08-.52-2.09-1.18-2.99-1.98-.85-.76-1.53-1.68-2-2.71-.52-1.2-.77-2.5-.74-3.81-.14-2.76,1.02-5.42,3.14-7.2,2.5-1.85,5.57-2.77,8.67-2.58,1.96-.02,3.91.21,5.81.68,1.35.3,2.64.8,3.83,1.5l-1.57,4c-1-.56-2.06-.99-3.17-1.29-1.59-.45-3.24-.66-4.89-.63-.89,0-1.77.1-2.63.31-.76.18-1.48.49-2.13.91-.6.39-1.09.92-1.44,1.55-.37.68-.55,1.44-.53,2.21-.03.83.17,1.65.56,2.38.4.67.93,1.25,1.57,1.7.74.53,1.53.98,2.36,1.34.89.41,1.88.81,2.97,1.22,1.52.61,2.92,1.22,4.19,1.82,1.2.56,2.31,1.3,3.3,2.18.93.84,1.66,1.87,2.15,3.01.54,1.34.8,2.79.76,4.23.14,2.78-1.13,5.45-3.37,7.1-2.82,1.81-6.15,2.68-9.5,2.47-1.28,0-2.56-.09-3.83-.28-1.05-.16-2.09-.38-3.12-.66-.8-.21-1.59-.48-2.36-.81-.66-.29-1.17-.53-1.54-.73l1.47-4.06c1.14.59,2.33,1.08,3.55,1.47,1.88.59,3.85.87,5.82.83" fill="#fff"></path>
              <path d="M122.92,45.44c-1.08.27-2.51.56-4.28.86-2.04.32-4.1.48-6.16.46-1.75.05-3.49-.25-5.12-.89-1.31-.54-2.46-1.4-3.35-2.51-.87-1.13-1.49-2.43-1.82-3.82-.39-1.6-.57-3.25-.56-4.89v-14.8h4.71v13.79c-.2,2.4.33,4.8,1.52,6.9,1.26,1.49,3.18,2.27,5.12,2.08.51,0,1.03-.02,1.57-.05.54-.03,1.05-.08,1.52-.13.48-.05.9-.1,1.29-.15.28-.03.57-.09.83-.18v-22.25h4.71v25.6Z" fill="#fff"></path>
              <path d="M138.66,46.71c-2.22.16-4.42-.51-6.18-1.88-1.34-1.51-1.99-3.51-1.82-5.52V7.68l4.71-.81v31.68c-.01.65.05,1.3.2,1.93.11.46.33.88.66,1.22.34.32.76.56,1.22.68.61.18,1.24.3,1.87.38l-.66,3.95Z" fill="#fff"></path>
              <path d="M142.21,33.08c-.04-2.08.3-4.15,1.01-6.11.59-1.61,1.51-3.08,2.68-4.33,1.08-1.13,2.4-2.01,3.85-2.58,1.42-.57,2.93-.86,4.46-.86,3.08-.19,6.09,1.03,8.16,3.32,2.11,2.93,3.12,6.51,2.84,10.11v.79c0,.3-.02.59-.05.89h-18.04c.03,2.3.87,4.51,2.38,6.23,1.78,1.56,4.12,2.33,6.49,2.13,1.41.03,2.82-.12,4.19-.43.88-.2,1.73-.48,2.56-.84l.66,3.95c-.96.43-1.98.76-3.01.96-1.6.36-3.25.53-4.89.51-2.03.05-4.06-.31-5.96-1.04-1.58-.62-2.99-1.6-4.13-2.86-1.1-1.26-1.92-2.73-2.41-4.33-.54-1.78-.8-3.64-.78-5.5h0ZM160.31,30.49c.11-1.88-.46-3.74-1.6-5.25-1.1-1.37-2.78-2.13-4.54-2.05-.99-.02-1.97.2-2.86.63-.8.4-1.52.96-2.1,1.65-.58.69-1.04,1.48-1.34,2.33-.32.87-.53,1.77-.63,2.69h13.07Z" fill="#fff"></path>
              <path d="M181.26,31.71c1.14.89,2.21,1.86,3.22,2.89,1.13,1.14,2.25,2.38,3.35,3.72,1.1,1.34,2.14,2.69,3.12,4.06.89,1.23,1.72,2.51,2.48,3.83h-5.52c-.76-1.25-1.58-2.45-2.46-3.62-.93-1.23-1.9-2.42-2.91-3.55-.98-1.09-2.01-2.13-3.09-3.12-.94-.86-1.94-1.66-2.99-2.38v12.67h-4.71V7.68l4.71-.81v24.03c.81-.81,1.71-1.71,2.69-2.69.98-.98,1.94-1.98,2.89-2.99.95-1.01,1.84-1.99,2.69-2.91.85-.93,1.57-1.75,2.18-2.46h5.52c-.78.85-1.62,1.77-2.53,2.79-.91,1.01-1.86,2.03-2.84,3.07-.98,1.03-1.97,2.06-2.96,3.09-1,1.03-1.93,2-2.81,2.91" fill="#fff"></path>
              <path d="M197.91,46.2V7.68l4.71-.81v13.48c.91-.35,1.85-.61,2.81-.79.98-.18,1.97-.28,2.96-.28,1.78-.06,3.56.25,5.22.89,1.3.52,2.45,1.38,3.32,2.47.86,1.13,1.46,2.44,1.75,3.83.35,1.61.52,3.26.51,4.92v14.8h-4.71v-13.79c.02-1.39-.09-2.78-.33-4.16-.16-1-.53-1.95-1.09-2.79-.5-.71-1.21-1.25-2.03-1.55-1.01-.35-2.07-.51-3.14-.48-.53,0-1.05.04-1.57.1-.54.07-1.06.14-1.55.23-.49.08-.93.18-1.32.28-.28.07-.56.15-.84.25v21.89h-4.71Z" fill="#fff"></path>
              <path d="M234.46,19.19c1.63-.04,3.25.21,4.79.74,1.2.42,2.28,1.14,3.14,2.08.81.92,1.39,2.01,1.7,3.19.35,1.33.52,2.7.51,4.08v16.47l-1.7.28c-.73.12-1.55.23-2.46.33-.91.1-1.9.19-2.97.28-1.06.08-2.12.13-3.17.13-1.38.01-2.76-.14-4.11-.46-1.16-.27-2.26-.76-3.24-1.44-.92-.67-1.66-1.57-2.13-2.61-.54-1.23-.8-2.56-.76-3.9-.04-1.31.27-2.6.89-3.75.58-1.03,1.41-1.91,2.41-2.53,1.09-.67,2.29-1.16,3.55-1.42,1.4-.31,2.83-.46,4.26-.46.49,0,.98.03,1.47.08.51.05.99.12,1.44.2.46.08.85.16,1.19.23.34.07.57.12.71.15v-1.32c0-.77-.09-1.55-.25-2.31-.16-.73-.47-1.42-.91-2.03-.47-.62-1.09-1.11-1.8-1.42-.94-.39-1.95-.57-2.97-.53-1.37-.01-2.73.1-4.08.33-.89.15-1.76.37-2.61.68l-.56-3.9c.98-.37,2.01-.64,3.05-.79,1.52-.26,3.06-.39,4.6-.38M234.86,42.81c1.12,0,2.1-.03,2.96-.08.73-.03,1.45-.12,2.15-.28v-7.86c-.53-.22-1.08-.37-1.65-.43-.91-.13-1.84-.19-2.76-.18-.76,0-1.51.05-2.26.15-.76.09-1.49.3-2.18.63-.64.31-1.21.76-1.65,1.32-.46.64-.7,1.42-.66,2.2-.15,1.38.48,2.74,1.62,3.52,1.35.72,2.88,1.06,4.41.99h0Z" fill="#fff"></path>
              <path d="M52.91,45.31c-.24-1.21-.28-2.62-.52-3.83-1.21-5.08-4.1-8.94-8.45-11.84-3.62-2.42-7.73-4.11-11.59-5.56-3.14-1.21-6.52-2.66-9.42-4.11-.97-.48-1.69-1.21-2.66-1.69-5.55-4.11-5.31-13.54,2.17-16.92,3.38-1.45,6.76-1.69,10.38-.97,12.31,1.93,20.52,8.94,24.15,20.79,2.56,7.93,1.3,15.41-2.69,22.44-.14.25-.63,1.07-1.37,1.69" fill="#feb42b"></path>
              <path d="M52.88,45.11c-.24-1.21-.24-2.42-.48-3.63-1.21-5.08-4.1-8.94-8.45-11.84-3.62-2.42-7.73-4.11-11.59-5.56-3.14-1.21-6.52-2.66-9.42-4.11-.97-.48-1.69-1.21-2.66-1.69-5.55-4.11-5.31-13.54,2.17-16.92C24.42.52,26.4.09,28.41.01,18.68.2,10.19,5.21,5.07,12.72c.02.01-.02-.01,0,0h0s0,0,0,0c.06.66.14,1.31.23,1.95.28,1.9.74,3.67,1.46,5.3.24.54.51,1.07.8,1.58,1.17,2.03,2.73,3.77,4.56,5.28.92.76,1.9,1.46,2.94,2.11.52.33,1.05.64,1.59.94,1.09.6,2.2,1.16,3.34,1.69,1.7.79,3.45,1.52,5.2,2.23,1.75.71,3.5,1.4,5.22,2.12.27.12.54.24.8.35,1.59.69,3.08,1.31,4.67,2.28.26.16.53.33.8.51,1.54,1,2.71,2.13,3.52,3.39.41.63.73,1.29.97,1.98.56,1.61.65,3.37.34,5.27-.72,4.11-4.1,7.01-8.45,7.73-1.24.26-2.47.41-3.69.48.41,0,.95,0,1.67-.04,9.13-.65,17.01-5.39,21.85-12.56,0-.06-.03-.05-.04-.2Z" fill="#fff"></path>
              <path d="M5.07,12.72c.24,2.66.72,5.08,1.69,7.25,1.93,4.35,5.55,7.49,9.9,9.91,4.35,2.42,9.18,4.11,13.76,6.04,2.17.97,4.1,1.69,6.28,3.14,4.11,2.66,5.55,6.28,4.83,10.63-.72,4.11-4.1,7.01-8.45,7.74-7,1.45-13.52-.24-19.56-4.11C4.59,47.29,0,38.59,0,27.95c.24-5.56,1.93-10.63,5.07-15.23" fill="#e32c26"></path>
            </g>
          </g>
</svg>